<svg xmlns="http://www.w3.org/2000/svg" viewBox="0 0 22 22"><title>leave</title><g class="nc-icon-wrapper" fill="#fc1c07"><path d="M12.42 12.42a0.46 0.46 0 0 0-0.46 0.46v3.68h-4.14v-11.04a0.46 0.46 0 0 0-0.21-0.39l-5.12-3.29h9.47v4.6a0.46 0.46 0 0 0 0.92 0v-5.06a0.46 0.46 0 0 0-0.46-0.46h-11.5a0.46 0.46 0 0 0-0.46 0.46v15.64a0.46 0.46 0 0 0 0.21 0.39l6.44 4.14a0.46 0.46 0 0 0 0.71-0.39v-3.68h4.6a0.46 0.46 0 0 0 0.46-0.46v-4.14a0.46 0.46 0 0 0-0.46-0.46z" fill="#111111"/><path data-color="color-2" d="M21.44 9.3l-4.14-3.22a0.46 0.46 0 0 0-0.74 0.36v2.3h-5.98a0.92 0.92 0 0 0 0 1.84h5.98v2.3a0.46 0.46 0 0 0 0.26 0.41 0.46 0.46 0 0 0 0.48-0.05l4.14-3.22a0.46 0.46 0 0 0 0-0.72z"/></g></svg>