<svg xmlns="http://www.w3.org/2000/svg" viewBox="0 0 48 48"><title>mug</title><g class="nc-icon-wrapper"><path d="M39.5,37h-4a1.5,1.5,0,0,1,0-3h4A2.5,2.5,0,0,0,42,31.5V23H35.5a1.5,1.5,0,0,1,0-3h8A1.5,1.5,0,0,1,45,21.5v10A5.506,5.506,0,0,1,39.5,37Z" fill="#b3b3b3"/> <path d="M36,15H6a1,1,0,0,0-1,1V40a7.008,7.008,0,0,0,7,7H30a7.008,7.008,0,0,0,7-7V16A1,1,0,0,0,36,15Z" fill="#e6e6e6"/> <path d="M20,9a1,1,0,0,1-1-1V2a1,1,0,0,1,2,0V8A1,1,0,0,1,20,9Z" fill="#e86c60"/> <path d="M10,11a1,1,0,0,1-1-1V4a1,1,0,0,1,2,0v6A1,1,0,0,1,10,11Z" fill="#e86c60"/> <path d="M30,11a1,1,0,0,1-1-1V4a1,1,0,0,1,2,0v6A1,1,0,0,1,30,11Z" fill="#e86c60"/></g></svg>