<svg xmlns="http://www.w3.org/2000/svg" viewBox="0 0 48 48"><title>book bookmark</title><g stroke-linecap="square" stroke-width="2" fill="none" stroke="#ffffff" stroke-linejoin="miter" class="nc-icon-wrapper" stroke-miterlimit="10"><polyline data-cap="butt" points="26 2 26 18 20 14 14 18 14 2" stroke-linecap="butt" stroke="#ffffff"></polyline> <path data-cap="butt" d="M6,42a4,4,0,0,0,4,4H38a4,4,0,0,0,4-4V34" stroke-linecap="butt"></path> <path data-cap="butt" d="M10,2A4,4,0,0,0,6,6V42a4,4,0,0,1,4-4H38a4,4,0,0,0,4-4V6a4,4,0,0,0-4-4Z" stroke-linecap="butt"></path></g></svg>