<svg xmlns="http://www.w3.org/2000/svg" viewBox="0 0 48 48"><title>book bookmark</title><g class="nc-icon-wrapper" stroke-linecap="square" stroke-linejoin="miter" stroke-width="2" fill="#ff5151" stroke="#ff5151"><polyline data-cap="butt" data-color="color-2" points="26 2 26 18 20 14 14 18 14 2" fill="none" stroke-miterlimit="10" stroke-linecap="butt"/> <path data-cap="butt" d="M6,42a4,4,0,0,0,4,4H38a4,4,0,0,0,4-4V34" fill="none" stroke="#ffc150" stroke-miterlimit="10" stroke-linecap="butt"/> <path data-cap="butt" d="M10,2A4,4,0,0,0,6,6V42a4,4,0,0,1,4-4H38a4,4,0,0,0,4-4V6a4,4,0,0,0-4-4Z" fill="none" stroke="#ffc150" stroke-miterlimit="10" stroke-linecap="butt"/></g></svg>