<svg xmlns="http://www.w3.org/2000/svg" viewBox="0 0 48 48"><title>t remove</title><g class="nc-icon-wrapper"><path fill="#E86C60" d="M35.70703,16.29297l-4-4c-0.39062-0.39062-1.02344-0.39062-1.41406,0L24,18.58594l-6.29297-6.29297 c-0.39062-0.39062-1.02344-0.39062-1.41406,0l-4,4c-0.39062,0.39062-0.39062,1.02344,0,1.41406L18.58594,24l-6.29297,6.29297 c-0.39062,0.39062-0.39062,1.02344,0,1.41406l4,4c0.39062,0.39062,1.02344,0.39062,1.41406,0L24,29.41406l6.29297,6.29297 C30.48828,35.90234,30.74414,36,31,36s0.51172-0.09766,0.70703-0.29297l4-4c0.39062-0.39062,0.39062-1.02344,0-1.41406L29.41406,24 l6.29297-6.29297C36.09766,17.31641,36.09766,16.68359,35.70703,16.29297z"/></g></svg>