<svg xmlns="http://www.w3.org/2000/svg" viewBox="0 0 48 48" width="25" height="25"><title>crane</title><g class="nc-icon-wrapper"><path d="M45.069,9.939,18,8.072,16,2H9A1,1,0,0,0,8,3V8L2.811,9A1,1,0,0,0,2,9.979V14a1,1,0,0,0,1,1H9V43H4a1,1,0,0,0-1,1v1a1,1,0,0,0,1,1H23a1,1,0,0,0,1-1V44a1,1,0,0,0-1-1H18V15H45a1,1,0,0,0,1-1V10.936A1,1,0,0,0,45.069,9.939ZM11,15h5v1.541l-5,4.286Zm5,4.173v7.654L11.536,23Zm-5,6L15.464,29,11,32.827Zm5,6v7.654L11.536,35ZM11,43V37.173l5,4.286V43Z" fill="#ffd764"/><rect x="38" y="15" width="2" height="14" fill="#5b5b5b"/><path d="M16.529,10,14.553,4H11V9a1,1,0,0,0,1,1Z" fill="#5a7a84"/><rect x="33" y="29" width="12" height="7" rx="1" fill="#b3b3b3"/></g></svg>