<svg xmlns="http://www.w3.org/2000/svg" viewBox="0 0 48 48"><title>grenade</title><g class="nc-icon-wrapper"><circle cx="20" cy="32" r="15" fill="#72c472"/><path d="M15.271,41c1.182,3.736,3.013,6,4.729,6s3.547-2.264,4.729-6Z" fill="#4da34d"/><path d="M25.978,33H14.022a31.623,31.623,0,0,0,.714,6H25.264A31.623,31.623,0,0,0,25.978,33Z" fill="#4da34d"/><path d="M27.977,31h6.972a14.893,14.893,0,0,0-1.692-6H27.309A34.054,34.054,0,0,1,27.977,31Z" fill="#4da34d"/><path d="M26.812,23h5.16a15.03,15.03,0,0,0-7.643-5.357A17,17,0,0,1,26.812,23Z" fill="#4da34d"/><path d="M27.977,33a34.054,34.054,0,0,1-.668,6H33a.962.962,0,0,1,.234.047A14.884,14.884,0,0,0,34.949,33Z" fill="#4da34d"/><path d="M25.264,25H14.736a31.623,31.623,0,0,0-.714,6H25.978A31.623,31.623,0,0,0,25.264,25Z" fill="#4da34d"/><path d="M13.188,23a17,17,0,0,1,2.483-5.357A15.03,15.03,0,0,0,8.028,23Z" fill="#4da34d"/><path d="M24.729,23c-1.182-3.736-3.013-6-4.729-6s-3.547,2.264-4.729,6Z" fill="#4da34d"/><path d="M13.188,41H8.028a15.03,15.03,0,0,0,7.643,5.357A17,17,0,0,1,13.188,41Z" fill="#4da34d"/><path d="M26.812,41a17,17,0,0,1-2.483,5.357A15.03,15.03,0,0,0,31.972,41Z" fill="#4da34d"/><path d="M12.023,33H5.051a14.893,14.893,0,0,0,1.692,6h5.948A34.054,34.054,0,0,1,12.023,33Z" fill="#4da34d"/><path d="M6.743,25a14.893,14.893,0,0,0-1.692,6h6.972a34.054,34.054,0,0,1,.668-6Z" fill="#4da34d"/><path d="M41.263,9.013A15.007,15.007,0,0,0,28,1H16a1,1,0,0,0-1,1V9H25V4h3A11.991,11.991,0,0,1,38.194,9.7,5.993,5.993,0,0,0,40,20.91V31.5a1.5,1.5,0,0,0,3,0V20.65A5.992,5.992,0,0,0,41.263,9.013ZM41,19a4,4,0,1,1,4-4A4,4,0,0,1,41,19Z" fill="#b3b3b3"/><rect x="11" y="9" width="18" height="11" rx="2" fill="#444"/></g></svg>