<svg xmlns="http://www.w3.org/2000/svg" viewBox="0 0 48 48"><title>l settings</title><g stroke-linecap="square" stroke-width="2" fill="none" stroke="#ffffff" stroke-linejoin="miter" class="nc-icon-wrapper" stroke-miterlimit="10"><circle stroke="#ffffff" cx="36" cy="34" r="7"></circle> <line stroke="#ffffff" x1="36" y1="27" x2="36" y2="24"></line> <line stroke="#ffffff" x1="40.95" y1="29.05" x2="43.071" y2="26.929"></line> <line stroke="#ffffff" x1="43" y1="34" x2="46" y2="34"></line> <line stroke="#ffffff" x1="40.95" y1="38.95" x2="43.071" y2="41.071"></line> <line stroke="#ffffff" x1="36" y1="41" x2="36" y2="44"></line> <line stroke="#ffffff" x1="31.05" y1="38.95" x2="28.929" y2="41.071"></line> <line stroke="#ffffff" x1="29" y1="34" x2="26" y2="34"></line> <line stroke="#ffffff" x1="31.05" y1="29.05" x2="28.929" y2="26.929"></line> <circle cx="36" cy="34" r="2" stroke-linejoin="miter" stroke="none" fill="#ffffff"></circle> <path d="M20,30H2v0 c0,3.314,2.686,6,6,6h12"></path> <path d="M6,25V9 c0-2.209,1.791-4,4-4h28c2.209,0,4,1.791,4,4v11"></path> <line x1="23" y1="11" x2="25" y2="11"></line></g></svg>