<svg xmlns="http://www.w3.org/2000/svg" viewBox="0 0 48 48" width="47" height="47"><title>ranking</title><g class="nc-icon-wrapper"><path d="M31.5,38a1.5,1.5,0,0,1-.723-.186L11.114,27H2V24h9.5a1.488,1.488,0,0,1,.723.186l19.145,10.53L44.286,24.9,46.1,27.286,32.407,37.694A1.5,1.5,0,0,1,31.5,38Z" fill="#e86c60"/> <path d="M4.171,43.513,1.487,42.171,16.158,12.829a1.5,1.5,0,0,1,2.214-.55l12.779,9.128,12.5-17.5,2.442,1.744L32.721,24.372a1.5,1.5,0,0,1-2.093.349l-12.571-8.98Z" fill="#4da34d"/></g></svg>