<svg xmlns="http://www.w3.org/2000/svg" viewBox="0 0 64 64"><title>network</title><g stroke-linecap="square" stroke-width="2" fill="none" stroke="#ffffff" stroke-linejoin="miter" class="nc-icon-wrapper" stroke-miterlimit="10"><path d="M39,19H25v0 c0-3.314,2.686-6,6-6h2C36.314,13,39,15.686,39,19L39,19z" stroke="#ffffff"></path> <circle cx="32" cy="6" r="4" stroke="#ffffff"></circle> <path d="M16,28H2v0 c0-3.314,2.686-6,6-6h2C13.314,22,16,24.686,16,28L16,28z" stroke="#ffffff"></path> <circle cx="9" cy="15" r="4" stroke="#ffffff"></circle> <path d="M63,28H49v0 c0-3.314,2.686-6,6-6h2C60.314,22,63,24.686,63,28L63,28z" stroke="#ffffff"></path> <circle cx="56" cy="15" r="4" stroke="#ffffff"></circle> <circle cx="32" cy="36" r="9"></circle> <path d="M35,50h-6 c-6.627,0-12,5.373-12,12v0h30v0C47,55.373,41.627,50,35,50z"></path></g></svg>